<svg xmlns="http://www.w3.org/2000/svg" width="82" height="32" viewBox="0 0 82 32" fill="none">
            <g clip-path="url(#clip0_1_58)">
              <path d="M13.7223 4.2514C6.14549 4.2514 0 10.4645 0 18.1246C0 25.7847 6.14549 31.9973 13.7223 31.9973C21.2991 31.9973 27.4442 25.7851 27.4442 18.125C27.4442 10.4649 21.2991 4.25182 13.7223 4.25182V4.2514ZM13.671 8.60374C18.8748 8.60374 23.0879 12.8636 23.0879 18.1246C23.0879 23.3855 18.8748 27.645 13.671 27.645C8.46732 27.645 4.24104 23.3855 4.24104 18.1246C4.24104 12.8636 8.46732 8.60374 13.671 8.60374Z" fill="#FEB511" />
              <path d="M31.5188 7.24376V19.3291H33.9021V10.9482L38.13 19.3291H40.7052V7.24376H38.3227V14.7824L34.4146 7.24417H32.0313L31.5188 7.24376ZM46.1509 10.2361C45.5516 10.2352 44.9581 10.3539 44.4043 10.5853C43.8504 10.8168 43.3472 11.1564 42.9235 11.5848C42.4997 12.0131 42.1638 12.5218 41.9348 13.0817C41.7058 13.6416 41.5884 14.2416 41.5892 14.8475C41.5892 17.3988 43.6269 19.4717 46.1509 19.4717C48.6748 19.4717 50.7248 17.3988 50.7248 14.8471C50.7248 12.2958 48.6744 10.2361 46.1509 10.2361ZM46.1632 12.4769C47.4547 12.4769 48.4952 13.5422 48.4952 14.8471C48.4952 16.1528 47.4542 17.2048 46.1636 17.2048C44.8729 17.2048 43.8188 16.1524 43.8188 14.8471C43.8202 14.2188 44.0677 13.6167 44.5071 13.1726C44.9466 12.7284 45.5417 12.4782 46.1632 12.4769ZM51.3431 10.4317V19.3291H53.9318V15.7175C53.9318 14.4371 54.2082 13.6798 54.6678 13.131C55.1446 12.5619 55.5636 12.2278 56.8437 12.2108L57.8145 12.2241L57.8277 16.2933C57.8297 16.9159 57.8605 17.4411 57.9986 17.8883C58.3164 18.9163 59.0892 19.4796 60.5841 19.4796C61.2671 19.4796 61.933 19.3872 62.5644 19.1522L62.254 17.3466C61.9576 17.4614 61.6042 17.5339 61.3348 17.5364C60.5755 17.5434 60.4004 17.2077 60.4029 16.4048V12.2241H62.2667L62.2733 10.4313H60.4029L60.3967 7.91236L58.3065 7.90614L57.8596 10.4313H56.6432C56.2545 10.4313 55.9556 10.4346 55.6612 10.5101C54.4148 10.8276 53.9031 11.7544 53.5887 12.3352L52.8576 10.4313L51.3431 10.4317ZM67.1306 10.2361C66.5313 10.2353 65.9378 10.354 65.3841 10.5854C64.8303 10.8169 64.3272 11.1565 63.9035 11.5849C63.4797 12.0133 63.1438 12.522 62.9149 13.0818C62.6859 13.6417 62.5685 14.2417 62.5693 14.8475C62.5693 17.3988 64.607 19.4717 67.1306 19.4717C69.6541 19.4717 71.7045 17.3988 71.7045 14.8471C71.7045 12.2958 69.6545 10.2361 67.1306 10.2361ZM67.1433 12.4769C68.4344 12.4769 69.4753 13.5422 69.4753 14.8471C69.4753 16.1528 68.4344 17.2048 67.1433 17.2048C65.8522 17.2048 64.7985 16.1524 64.7985 14.8471C64.7999 14.2188 65.0474 13.6166 65.487 13.1724C65.9265 12.7282 66.5218 12.4781 67.1433 12.4769ZM77.3875 10.2361C76.2034 10.2423 75.2309 10.8185 74.3252 11.8029L73.8254 10.4301H72.3138V19.3291H74.8377V13.2152C75.096 12.9196 75.6795 12.3725 76.4265 12.3733C77.3752 12.3741 77.7196 12.9909 77.7204 13.6815L77.7336 19.3291H80.3088V13.6036C80.3108 11.3768 79.0296 10.2266 77.3875 10.2361ZM80.5429 11.463V10.6125H80.2969V10.4359H80.9845V10.6125H80.7323V11.463H80.5429ZM81.1144 11.463V10.4359H81.3879L81.5699 11.1161L81.7413 10.4363H82V11.463H81.8561V10.6635L81.6318 11.463H81.4953L81.2903 10.6489V11.463H81.1144ZM27.5725 1.09081V2.15319H28.6234V1.09039L27.5725 1.09081ZM27.5725 2.15319H25.625V3.21516H27.5725V2.15319ZM25.625 3.21516H24.6513V5.2877H25.625V3.21516ZM25.625 5.2877V6.29827H26.6246V5.2877H25.625ZM26.6246 5.2877H27.7263V4.29039H26.6242L26.6246 5.2877ZM25.625 6.29827H24.6513V7.33454H23.639V6.29827H21.9863V7.03609H21.0892V7.94304H22.0761V8.95361H21.0765L21.0892 7.94304H20.0129V9.5364H19.0138V10.5337H18.3348V11.5443H17.6173C16.0741 14.1026 14.8359 16.4661 14.1192 18.215C12.1524 15.5675 11.2299 14.6141 9.57148 13.6815C8.97862 13.3482 8.45054 13.1932 8.07211 13.4096C7.67892 13.6342 7.56371 14.3439 8.05981 14.8989C11.1389 18.3468 11.6928 20.1864 12.8129 22.8135C13.1467 23.5969 13.7764 23.9331 14.4915 23.9534C14.8736 23.9642 15.3426 23.8473 15.6571 23.4742C15.8031 23.3014 15.8457 23.0647 15.9646 22.7745C16.9006 20.4931 17.9392 18.2054 19.4373 16.0264L19.4496 14.8865H20.2442L20.2315 13.8759H21.0896L21.0773 12.6709H22.0765V11.57H21.0642L21.0769 10.5337H22.0765V11.57H23.0756V10.5209H23.8575V9.29019H24.7669V8.44832H25.625V6.29827ZM23.639 6.29827H24.6513V5.2877H23.639V6.29827ZM23.639 5.2877V4.31609H22.6271V5.2877H23.639Z" fill="black" />
              <path d="M25.625 3.2201H26.6225V4.28414H25.625V3.2201ZM28.618 2.15605H29.6975V3.2201H28.618V2.15605ZM28.618 0.00268555H29.6975V1.09201H28.618V0.00268555Z" fill="#FEB511" />
              <path d="M32.0858 28.8989H31.6102V22.2676H32.4113V24.719C32.7282 24.3177 33.1723 24.0412 33.6634 24.0566C34.9947 24.098 35.4867 25.2976 35.5015 26.4566C35.5195 27.846 34.7639 28.978 33.5437 28.9909C33.0214 28.9963 32.5663 28.7612 32.2686 28.3202L32.0858 28.8989ZM32.4162 27.8501C32.7434 28.1548 32.8065 28.3198 33.44 28.3256C34.392 28.3343 34.6364 27.2661 34.6343 26.5241C34.6319 25.5886 34.3773 24.7873 33.5511 24.7633C33.0308 24.748 32.6758 25.0079 32.4265 25.2922L32.4162 27.8501ZM36.194 30.5544L36.2985 29.943C36.9709 30.0781 37.4564 29.9314 37.7208 29.182L36.055 24.1523H36.8889L38.0656 28.1614L39.1771 24.1523H39.9918L38.3735 29.3627C38 30.5656 37.1267 30.7782 36.194 30.5544ZM42.4444 28.2L42.852 27.6309C43.4727 28.0802 43.9401 28.2626 44.7035 28.2659C45.5293 28.27 46.0565 27.8356 46.052 27.1637C46.0393 25.2765 42.8368 26.3347 42.7818 23.8191C42.7577 22.7165 43.7289 22.1735 44.6658 22.1685C45.373 22.1648 46.0364 22.2729 46.4878 22.5954L46.1352 23.2363C45.9233 23.0236 45.1603 22.8814 44.7457 22.8781C44.0241 22.8727 43.5682 23.1616 43.5473 23.7747C43.4866 25.5786 46.8618 24.5859 46.856 27.1447C46.854 28.3376 45.9729 28.9581 44.7011 28.9693C43.5264 28.9797 42.6527 28.4429 42.4444 28.2ZM52.1643 28.8926V24.1598H52.6583L52.8506 24.9316C53.2393 24.4085 53.9125 24.0595 54.4792 24.0611C55.1487 24.0632 55.4332 24.5403 55.5193 24.8901C55.9416 24.3927 56.5082 24.0611 57.0818 24.0566C58.0699 24.0483 58.2967 24.777 58.2967 25.5944V28.8926L57.4951 28.8955V25.8559C57.4951 25.1903 57.416 24.7583 56.8518 24.7699C56.2266 24.7836 55.8937 25.1994 55.6657 25.405V28.8955H54.8338V25.766C54.8338 25.131 54.7317 24.7633 54.1983 24.7749C53.6612 24.7865 53.5042 25.005 52.9835 25.4224V28.896L52.1643 28.8926ZM62.27 28.3285C61.8555 28.7675 61.3225 28.978 60.8231 28.9735C60.0273 28.9656 59.3823 28.4761 59.3856 27.6802C59.3889 26.709 60.0515 26.44 60.6193 26.2493C61.1794 26.0611 61.6263 25.9961 62.1343 25.9065C62.156 25.0622 61.9793 24.75 61.2962 24.7455C60.6804 24.7413 60.1523 25.0244 59.9248 25.1434L59.6345 24.6021C59.8592 24.4251 60.4246 24.0661 61.3503 24.0578C62.3655 24.0495 62.9707 24.6257 62.9711 25.7034L62.9723 28.8955H62.4787L62.27 28.3285ZM62.1408 26.4578C61.6365 26.5573 61.3598 26.6414 60.9641 26.7687C60.4561 26.9316 60.2105 27.1907 60.2167 27.662C60.2228 28.1561 60.5447 28.3463 60.9457 28.3368C61.4254 28.3256 61.7345 28.1668 62.1375 27.8597L62.1408 26.4578ZM71.4466 28.2543L71.5688 28.8172C71.2875 28.9739 70.8668 28.9631 70.6983 28.9639C69.7094 28.9668 69.561 28.3185 69.561 27.5795V24.7418H68.8624V24.1523H69.561L69.8004 22.8031L70.3732 22.801V24.1523H71.4269V24.7418H70.3732V27.6226C70.3732 28.3256 70.6631 28.3285 70.9357 28.3397C71.1981 28.3509 71.4466 28.2543 71.4466 28.2543ZM75.5163 27.8559L75.8566 28.3471C75.5003 28.6298 75.1005 28.9751 74.2411 28.978C72.8094 28.9822 72.1706 27.8746 72.1764 26.5577C72.1825 25.2454 72.782 24.0653 74.1017 24.0582C75.7426 24.0487 75.9738 25.6508 75.973 26.7675H73.0444C73.0456 27.6644 73.4064 28.3148 74.1448 28.3219C74.9074 28.3289 75.5163 27.8559 75.5163 27.8559ZM73.0439 26.2H75.1259C75.0849 25.4568 74.8951 24.6746 74.1091 24.6846C73.2666 24.6949 73.1005 25.4804 73.0439 26.2ZM80.2386 28.3467C79.9037 28.675 79.3711 28.9598 78.6835 28.9648C77.3662 28.9747 76.7175 27.9476 76.7175 26.5283C76.7171 25.1148 77.4215 24.0591 78.7913 24.0566C79.3985 24.0553 79.8352 24.3003 80.1492 24.5581L79.7946 25.1024C79.597 24.9432 79.1624 24.7219 78.7823 24.7272C77.85 24.7405 77.5597 25.4348 77.5617 26.5063C77.5638 27.3987 77.7594 28.3007 78.7782 28.3103C79.0812 28.3132 79.4473 28.2046 79.8409 27.8593L80.2386 28.3467ZM47.48 30.5544L47.5842 29.943C48.2566 30.0781 48.7424 29.9314 49.0069 29.182L47.3406 24.1523H48.175L49.3517 28.1614L50.4632 24.1523H51.2779L49.6596 29.3627C49.2861 30.5656 48.4124 30.7782 47.48 30.5544ZM64.3364 28.8926V24.1598H64.8304L65.0223 24.9316C65.4114 24.4085 66.1395 24.0557 66.7976 24.0611C67.6504 24.0682 67.9841 24.828 67.9841 25.6271V28.8955H67.1522V25.766C67.1522 25.131 67.0497 24.7633 66.5167 24.7749C65.9796 24.7865 65.6762 25.005 65.1551 25.4224V28.896L64.3364 28.8926Z" fill="#999999" />
            </g>
            <defs>
              <clipPath id="clip0_1_58">
                <rect width="82" height="32" fill="white" />
              </clipPath>
            </defs>
          </svg>