<svg xmlns="http://www.w3.org/2000/svg" width="24" height="15" viewBox="0 0 24 15" fill="none">
  <g clip-path="url(#clip0_1_143)">
    <path opacity="0.07" d="M22.1053 0.5H1.89474C0.821053 0.5 0 1.25833 0 2.25V12.75C0 13.7417 0.88421 14.5 1.89474 14.5H22.1053C23.1789 14.5 24 13.7417 24 12.75V2.25C24 1.25833 23.1158 0.5 22.1053 0.5Z" fill="black"/>
    <path d="M22.1055 1.08334C22.8003 1.08334 23.3687 1.60834 23.3687 2.25001V12.75C23.3687 13.3917 22.8003 13.9167 22.1055 13.9167H1.89499C1.20026 13.9167 0.631836 13.3917 0.631836 12.75V2.25001C0.631836 1.60834 1.20026 1.08334 1.89499 1.08334H22.1055Z" fill="white"/>
    <path d="M17.874 6.39166H17.6845C17.4319 6.97499 17.2424 7.26666 17.0529 8.14166H18.2529C18.0635 7.26666 18.0635 6.85832 17.874 6.39166ZM19.7056 9.83332H18.6319C18.5687 9.83332 18.5687 9.83332 18.5056 9.77499L18.3793 9.24999L18.3161 9.13332H16.8003C16.7372 9.13332 16.674 9.13332 16.674 9.24999L16.4845 9.77499C16.4845 9.83332 16.4214 9.83332 16.4214 9.83332H15.095L15.2214 9.54166L17.0529 5.57499C17.0529 5.28332 17.2424 5.16666 17.5582 5.16666H18.5056C18.5687 5.16666 18.6319 5.16666 18.6319 5.28332L19.5161 9.07499C19.5793 9.30832 19.6424 9.48332 19.6424 9.71666C19.7056 9.77499 19.7056 9.77499 19.7056 9.83332ZM11.2424 9.65832L11.495 8.60832C11.5582 8.60832 11.6214 8.66666 11.6214 8.66666C12.0635 8.84166 12.5056 8.95832 12.9477 8.89999C13.074 8.89999 13.2635 8.84166 13.3898 8.78332C13.7056 8.66666 13.7056 8.37499 13.4529 8.14166C13.3266 8.02499 13.1371 7.96666 12.9477 7.84999C12.695 7.73332 12.4424 7.61666 12.2529 7.44166C11.495 6.85832 11.7477 6.04166 12.1898 5.63332C12.5687 5.39999 12.7582 5.16666 13.2635 5.16666C14.0214 5.16666 14.8424 5.16666 15.2214 5.28332H15.2845C15.2214 5.63332 15.1582 5.92499 15.0319 6.27499C14.7161 6.15832 14.4003 6.04166 14.0845 6.04166C13.895 6.04166 13.7056 6.04166 13.5161 6.09999C13.3898 6.09999 13.3266 6.15832 13.2635 6.21666C13.1371 6.33332 13.1371 6.50832 13.2635 6.62499L13.5793 6.85832C13.8319 6.97499 14.0845 7.09166 14.274 7.20832C14.5898 7.38332 14.9056 7.67499 14.9687 8.02499C15.095 8.54999 14.9056 9.01666 14.4003 9.36666C14.0845 9.59999 13.9582 9.71666 13.5161 9.71666C12.6319 9.71666 11.9372 9.77499 11.3687 9.59999C11.3056 9.71666 11.3056 9.71666 11.2424 9.65832ZM9.03189 9.83332C9.09505 9.42499 9.09505 9.42499 9.1582 9.24999C9.47399 7.96666 9.78978 6.62499 10.0424 5.34166C10.1056 5.22499 10.1056 5.16666 10.2319 5.16666H11.3687C11.2424 5.86666 11.1161 6.39166 10.9266 7.03332C10.7371 7.90832 10.5477 8.78332 10.295 9.65832C10.295 9.77499 10.2319 9.77499 10.1056 9.77499M3.1582 5.28332C3.1582 5.22499 3.28452 5.16666 3.34768 5.16666H5.49504C5.81083 5.16666 6.06347 5.34166 6.12662 5.63332L6.69505 8.19999C6.69505 8.25832 6.69504 8.25832 6.7582 8.31666C6.7582 8.25832 6.82136 8.25832 6.82136 8.25832L8.14768 5.28332C8.08452 5.22499 8.14768 5.16666 8.21083 5.16666H9.53715C9.53715 5.22499 9.53715 5.22499 9.47399 5.28332L7.5161 9.54166C7.45294 9.65832 7.45294 9.71666 7.38978 9.77499C7.32662 9.83332 7.20031 9.77499 7.07399 9.77499H6.12662C6.06347 9.77499 6.00031 9.77499 6.00031 9.65832L4.98978 6.04166C4.86347 5.92499 4.67399 5.74999 4.42136 5.69166C4.04241 5.51666 3.34768 5.39999 3.22136 5.39999L3.1582 5.28332Z" fill="#142688"/>
  </g>
  <defs>
    <clipPath id="clip0_1_143">
      <rect width="24" height="14" fill="white" transform="translate(0 0.5)"/>
    </clipPath>
  </defs>
</svg>